<mxfile host="app.diagrams.net" agent="Mozilla/5.0 (X11; Linux x86_64) AppleWebKit/537.36 (KHTML, like Gecko) Chrome/128.0.0.0 Safari/537.36" version="24.7.14">
  <diagram name="Страница — 1" id="Ryrk3lNzAEyogj7Mgelx">
    <mxGraphModel dx="1148" dy="633" grid="1" gridSize="10" guides="1" tooltips="1" connect="1" arrows="1" fold="1" page="1" pageScale="1" pageWidth="827" pageHeight="1169" math="0" shadow="0">
      <root>
        <mxCell id="0" />
        <mxCell id="1" parent="0" />
        <mxCell id="lsZqnblPNUROAZuHbKDy-1" value="" style="whiteSpace=wrap;html=1;aspect=fixed;" vertex="1" parent="1">
          <mxGeometry x="680" y="330" width="80" height="80" as="geometry" />
        </mxCell>
        <mxCell id="lsZqnblPNUROAZuHbKDy-2" value="" style="whiteSpace=wrap;html=1;aspect=fixed;" vertex="1" parent="1">
          <mxGeometry x="680" y="200" width="80" height="80" as="geometry" />
        </mxCell>
        <mxCell id="lsZqnblPNUROAZuHbKDy-3" value="" style="whiteSpace=wrap;html=1;aspect=fixed;" vertex="1" parent="1">
          <mxGeometry x="680" y="70" width="80" height="80" as="geometry" />
        </mxCell>
        <mxCell id="lsZqnblPNUROAZuHbKDy-23" style="edgeStyle=orthogonalEdgeStyle;rounded=0;orthogonalLoop=1;jettySize=auto;html=1;exitX=1;exitY=0.5;exitDx=0;exitDy=0;entryX=0;entryY=0.5;entryDx=0;entryDy=0;" edge="1" parent="1" source="lsZqnblPNUROAZuHbKDy-5" target="lsZqnblPNUROAZuHbKDy-19">
          <mxGeometry relative="1" as="geometry" />
        </mxCell>
        <mxCell id="lsZqnblPNUROAZuHbKDy-24" style="edgeStyle=orthogonalEdgeStyle;rounded=0;orthogonalLoop=1;jettySize=auto;html=1;exitX=1;exitY=0.5;exitDx=0;exitDy=0;entryX=0;entryY=0.5;entryDx=0;entryDy=0;" edge="1" parent="1" source="lsZqnblPNUROAZuHbKDy-5" target="lsZqnblPNUROAZuHbKDy-21">
          <mxGeometry relative="1" as="geometry" />
        </mxCell>
        <mxCell id="lsZqnblPNUROAZuHbKDy-25" style="edgeStyle=orthogonalEdgeStyle;rounded=0;orthogonalLoop=1;jettySize=auto;html=1;exitX=1;exitY=0.5;exitDx=0;exitDy=0;entryX=0;entryY=0.5;entryDx=0;entryDy=0;" edge="1" parent="1" source="lsZqnblPNUROAZuHbKDy-5" target="lsZqnblPNUROAZuHbKDy-20">
          <mxGeometry relative="1" as="geometry" />
        </mxCell>
        <mxCell id="lsZqnblPNUROAZuHbKDy-5" value="" style="shape=parallelogram;perimeter=parallelogramPerimeter;whiteSpace=wrap;html=1;fixedSize=1;" vertex="1" parent="1">
          <mxGeometry x="320" y="207" width="120" height="60" as="geometry" />
        </mxCell>
        <mxCell id="lsZqnblPNUROAZuHbKDy-29" style="edgeStyle=orthogonalEdgeStyle;rounded=0;orthogonalLoop=1;jettySize=auto;html=1;exitX=1;exitY=0.5;exitDx=0;exitDy=0;entryX=0;entryY=0.5;entryDx=0;entryDy=0;" edge="1" parent="1" source="lsZqnblPNUROAZuHbKDy-6" target="lsZqnblPNUROAZuHbKDy-28">
          <mxGeometry relative="1" as="geometry" />
        </mxCell>
        <mxCell id="lsZqnblPNUROAZuHbKDy-6" value="" style="ellipse;whiteSpace=wrap;html=1;" vertex="1" parent="1">
          <mxGeometry x="90" y="200" width="120" height="80" as="geometry" />
        </mxCell>
        <mxCell id="lsZqnblPNUROAZuHbKDy-7" value="" style="shape=image;verticalLabelPosition=bottom;labelBackgroundColor=default;verticalAlign=top;aspect=fixed;imageAspect=0;image=data:image/png,iVBORw0KGgoAAAANSUhEUgAAAOEAAADgCAMAAADCMfHtAAAAk1BMVEXmUiz////kPgDmTiXlRhfqeGHlSh7woZPmUCnkPADlTCHlRRTlSx/mTiblSBrlQw7rfWf2x7/86+j3zsftjnz99PL++vnulIP529b649/wpZfshnLqclnoYkPnWDXsgm31wrnpa0/xrKDztqz30szys6jvm4v53dj87+3nWznoYULpb1T0vbPti3joZ0rmVTHiJgADktzHAAAPy0lEQVR4nN1d6WKCOBAOASmHEG29ag+PevRQu+//dMstRwKZTLDufj9tRT6SzD0DMf7vIDf4jenj4um03z4c5pPJZD4/LLcf66fj4+wGP230zPBz93EYfTPKmG+FoT0cehGGQzsMLZ8xGl5eHk6LaZ93YPTH8HF9ePUpC4emQ4RwTNti1Bstnz57ug2jH4bH/chilh2IqdV5+pScT4893Iqhn+HnacVYaEqSK9H0LOrMxz2cTa0Mn7dv1IKzu7L03cGH7nOpj+Hj9p2GLYdODmbo/py0rqQmhrPTRQO9FIHlrp703FYMLQyPE2rJyhUpmMxb6hKvGhiOL9TTSS+BY7urBf7eDA0M9wHTunxXmPQy/nOGs6VvaTp9PATsff23DJcsBN5yaMO+4Pi/WI4IhnsfyM9hm9MWSDH60hdOsCozHDsW8F49Z2cY3/BN7bCf59szfN4w6K2Gr9H3dgxMMELgTtSNADWGcxcsP+1B/MUXRb0yZB+3ZDj2oIcpEv2X5KtKS5iAXRS3KpzhbEQVzpKfGNSP6gyjrbq8DcMxU9loNNXdascwh/WlsoxQhi9U5d7MUfZ4fAzDaBm3fTM8OvATGMPNzOgnHENC/B+w+whiuHXVTLThPLvAArVLY5j+rkeGA9X7y5fQeFTa4xU4UIEjz/CRqPpI5qq4CJ5htFMH/TB8UtARGdh1Yw3UozhXDH8hYTlZhltX+YYcu3QZoLHOR0ABh1GS4RkhIgo5E+EZLWpSuCfNDF+hfkQZftn7cTQ5zFRa3sgwnL2pacH8Zsoq7EF8KRh3NtHHcPqOEg/Oe/liR6E0tX9gFP2V6IahDKcOTv6Z58rlvgQ8/PkJKIVCOa3RyfDTRIbS7OqJ2fN5hCvjTcmnRjOcethYoVUVe1Ou2oncR/4f8BQ7GE4ddDDUrwU9V7xNz6ZKfofMRm1nOPvF2yB+LVTG8xHZulXKtlDsFjftDN80GFkNZ6CpEs14t3HXtvvqnUqjleHrEE+wbJWmaFpubmxnggVNdvku1d/G8AVqRH4xToyf1RMsDZHiJeug+jRphwHXwnAJtSHNifHRTAGzRnBlVPuf1H1Udqzc9hyVmOEYLr1pJJsudS+SNRKBT9VHZ74YKIZO8xekGD4ruEvJkbvUVog2w9VeZS/TY/KheggneG/8ggTDWaBw8MN9/M1h9Zu0efFlWTE4b+mH7+pehz1SYPiqErLwEk9wV1l956t58Uq4Jszi9a8I24K1RBkFDJdKeyYLi57LT8fkmR2bEpt8F58xqfIWacNnuFCLWQQ/yben5SXy5pzrn64edfEEUAEOxxYmp7gM60dJmuEm/X7ZAAt5G2h2fQZWnuPFxcM9oYXKZThS3DDZGlYWsW54p3gpBG4RAUDGUoXpNx7DtWq4qAiMls5UU+HHKML7+bJHUNw4OVxBiJHDcKr8MHnRe46yiJH/Q2kTo0RN9Kwu0gzVo7bX2y38h1zb1THJ6JSs1jUmoBfB56uMJkPlPVp2BQtZ4wm8m3ybsutHCk5+FS7XemswnCFEGi2OQrFNLZHln/5DRVtukPEEkxvUaDA8I3xCv05AJGiM3OGt6JIPbMif8aqL6gwVdX0Cs2Qe5h47MwRIlX4lAIDepk4owVChoqdAYnhX18MU2sRpBqMSD1cMZJTv4NDJ8ITJnJR35JE1SNcQ6ySn+vO4QoYYHKVYY4ip83XM8pXSHUfF1ROXoJI7TSAKiEuDY+dXGS4xZ31YsbGTwJLTEiSJNWLdaF1jKxkIbTgZlVuYoUzDalAtUen2g5hh7Es0jFZ08q1p2VQYHlBZNL9y4cQZYkcxw9iXaOgSlBxIwOq1mmWGOGlds15iAm2bNJFFbuNT9El0vlsY4pawFvmNCXB9wxyflDi/jU936GqN+iKWGOKW0BlWLxx7KHxDMYfL1ZavWJ0Y1Gz9EkOl1EgBu65saUMX1GA6Q46CVoliVlHbTCWGuENO60IlcBofVXEJuPbABJssqRngV4Z7lHvWDBq+eR35y5HJjXCoO+A5qmbGleEvSoo1hcqr276ExtzjKxPcaSF1qV4wfMJt0qZQGXQlL5c25UoinN0Ro5JIKBjiKs6C5o5cdVWCfoRNdZgAvYiV850z/MSJMKvpe3ZW1419j/8H9CJW9GzOcIl7bpwEUyd2TBAdM+ZYcVrOyuYMcSav9wInGGk+kXv8iNWJZVlD8ueJumLD3JXB1BVWGaDLUEtR2ozhBBeN9fk32gFX6FshBXvFLcsY4q4oCop2wBMb5sgIf9niJTqeWaOgRA4bcS8Tzs0hZdGXMkRuUmHIsB1ncZ0Ium3hqr5ShrjwiHcW3mkrli1tvuhtWlhURMMT46cIu7FukcDIXVXaVwlDpJlEFQc9HFuO7xiZiLrKhoQhLjhSSnLCMGtxPj6xllvhkRP81Wy1vsCYYsvfsHHFwmGNGSJTk4q6ogMvaLPm88oQeapVrO5uoLtrcn0RMwR2OtQgymMjgW5VzJMMBH0Mh7ySIDzQ/UP5QSTo1lVhHhsHfCzDneYMkdqwUQOsCegMRpZfJriiQKKu77uAyUYnyMJ/BP2wBCVBaKC94Mw0Jdh6skauRxfQCjHLfBGsWObWj+rAHD2aKVXUBKtaVV2nThzQzR5pSJ1gLZqe1KGGuHBm1RBsrRUvQ6YFyAguyV0CgvTvW4sR/phh2ttJsLbDHa9hWpdBsPYft1JdB/DnkCRlbmSH3KWmSkBfBnhtkaoLgq3MzavXtQNdxhepizj/RQSdx9Jwgp4YXvDDChOngCyxilWQ5kQDXeKWVWUT9HYXVgHjgC9YyFxXgjZwOelfHcCPI8qy3WSA3e49KUSsfIiRGDUEOI2iCV77nQag9xbJ7C2i2EJdAr9mBAsdo3oSr4B8oa/TSyhKy6ieJHNLftHX6cUH1jJuKfFdNVynl1gUupI2RmJRarhO0cmrEc86xp7pY9iDNMWHMGKkDPHnsI/sk56RYClDvCwVNY0h8IHNAKdIJQ06tByjoxoYDE0zzxLvnGykL+ZZQ5GFp3kRTy1+hRn60nZmYlDK26XeYX3YuCz0eI+EanyZgWHY3KfuROSoPVrupG85tUulXem0IOF4mvxS365/idM5oY5m91VEjlFntd0lBqK0GEpyM2QibeEWPbDT3XLAmFVZzFC5XKGBau2l40Xkfs/7XWFWyKchUv/wQVrzVGsunk+T92gxiw3janOEixB1Qu5rsq+9MEne60hKmYj8oPtmRGb6tHzNF1Ob2t8mSxS/P+h78rFoVkEAArxpnAYwy49fJxst5lcsgCy1EszG5dxgaDE2WO4EJR6AfugkwEIAyTWxEzFb7M9f/4g7YuUxpe7msG7b8YBJPYlLQI4AA4m21t/PdNhuu67jDKnXTqr3CCSmpVgLrBWAqoNUNBDQjK32drtbQDz/tIm0FJqAah7+fhEh9QtpeSKB5QdEQ2BuBcgSZp45geXpeqtLkAQoYZ26rQRYewmZpK0fsJ6CNMxJgHE7rSY2GLAqyrTPhUAHFlr6TGwwYCMfshNFwIND/07YABu+shoKAu6Fq3eD3w7AupisSYJUBuDJffOP9ukeGIDLbEyikCLoamHuB+CmxGzgUFy/B80n/408/QYmOvMikZhhfeptJ+y+KkxaMIemavJcQ8wQnm5l/dR2t2ANTmTk9QUxQ4Vcnb6ojBwUMjX53K+kjhbeCuc4NyU44wZpW1HUvSYMFUpMu4Ze6IXCbPiiRCRhqNJx4fdVk8jBQKGIz81DkAnDmUr/e9csdH0Az4Yn5ZbBtJ5dqfLfH9wGG6WXJuyrDKGGWwrzNlAqabqGBVOG6JmM94ZSQ102cUDL28LuCKX5LRlD/Di/+0Ip7JnPNtFS3XE3KA8Eyhmi+9/vCv66yVBHOef9oDzGopgTpaXM6k5QKXktGMJLWALrNoBbNBXPp2A4A79VRvLNbnhA76w6eOw6kQ5aSiYegvzXDKu56itDaKTnbhnWwkilyZDAJpW7ZVirWS4xBGWu7pdhfWx5eQYtzDi9V4b1kaFlhrBFvFOGjlX7dmWWMWjC7Z0ytOo1LxWGoAm398mwPs64PpMdIk7vk6HfiB5VGUJ04l0y5KRUajPFAbPu7pIhp5K3xhDwDpZ7ZMirxq7Phf+Qvtw9MuRl4BuT799kg3d3yJD3ipImQ2mNcX8M+U3XzbcXyKYi748hv2GA834GyXaOu2Po8V1yDsOd3D69N4aOzy+b5r1jQ3KfmvRGkLobQgUzRrlvEcGN2P8bCKsnuAzx75i4OcRpd/6bYLb/ufiwuIpJ8K4bpZfl/iFaXpcrYKhQ/PCXGLaULoveV3T8Lx3F1rcuCf92Usu3mTYKakM6WjtdxOznKrl987x8QGCpNIfEbZ223bK+rwod4z6y0F1lwBdrr3dt28Hv8AeqOrw8h8I8oLCjULKN4RT+NsSWNzpKAV4xMewqP2tjaDxTKEVs21AA/UGzs7GzlSH8vavIaabg4VAB6Ry13c7QeIJSxM05gZYQBl73z3UwBFPEzcUCvprbCSW6BbsYGmMYRc6rrQCA5tFkmls6GUIpYlpqYAWEwVCq37ObIXCjYqQpyPM2A7mGVgmGxgKkNNQXsW3gR/NJvkvKNBmGxrMFsG6U55zMIAaGfZF9I4MUQ2P6CxByqs0YLwA72JcP9MkxNIwfQGVSe9u+CJCeEQooo5dlaJzlJXnwrkAQEP1yXMhwMWmGxt6Vn0YEn0v7KX8ITQv0NgZ5hsYilDb8bai0+ZSvVw8vMMMQwNCYbaTFub0B3cVzKE2QQmdPQxhGLrj0TjUJQNyMpRWuycAuNoyhsTBlRTpAHEykpai/gbsuQIaR1pJ+3uxHahl3RDY2E7htbzIXAczQeApll9F0D52Gx+NA+on5b0p6Fs7QmJ2lb8qmh1bz+LhyZeWzSVUWUI1hdBp/pd0c2x2IZMP0443K8nPYQHU0jhJDw9hSaUPV9Onoo9FUu9huqLyKCB31mX6KDI3piyvvb8QT8zbz7elpt1jsxqfl+YsyeXpkSDEzDlQZRlr6h0IixoEXWj5jzPdD2wR5uu4EFd1SZxjJ+TeGn+7fyW+FnDSCYRhpjp45eu4K3RaPYxit44+8zIHCds8a2v6xDCOd9uLy543i4FjsQcvsNDzDSK4uh0xzD6pHv3W1iutgGOFp4MITVSJEGnSib0CMJobRQu7fACq8hZ7lDrS+MUMbwwiP2zdqYbar4/l0cNI8w14nwwifpxFjavUGkeFjT8b630urmWGM3fInMsogdovjWYyN9v1MhOmBYYzF/oVQZg27eDqmbTH3e3Lqb95NTwxjTBenw8BxGbNC2zODojDXcQLTHNqhzyj9Wj2se56r1SPDDI+L8cf2cB69br7ffwn5/frevK4mh8jTON5kGuq/JNAM5+heQ0wAAAAASUVORK5CYII=;" vertex="1" parent="1">
          <mxGeometry x="340" y="208.5" width="24.11" height="24" as="geometry" />
        </mxCell>
        <mxCell id="lsZqnblPNUROAZuHbKDy-8" value="" style="shape=image;verticalLabelPosition=bottom;labelBackgroundColor=default;verticalAlign=top;aspect=fixed;imageAspect=0;image=data:image/jpeg,/9j/4AAQSkZJRgABAQAAAQABAAD/2wCEAAkGBxMSEhUREhESFRUXFxcYFhUVFxUYFxsYGRcWFhgYFxoaHCshGBolGxcXITEhJiktLi4vGR8zODMsNygtLisBCgoKDg0OGxAQGy0lHyU1LS4yNzIrLS0vLS0vLS0tMi03Ky0uLS0tLys1LS8tLy0tLS0tKystLi0tKy0tLi0tLf/AABEIAOMA3gMBEQACEQEDEQH/xAAcAAEAAwEBAQEBAAAAAAAAAAAABQYHBAEDAgj/xABSEAABAwEFBAUIBgcDBw0AAAABAAIDEQQFEiExBkFRYQcTInGBMkJScpGhscEjNWKCwtEUM5KisrPwNHPSF0NUdMPh8RUWJCVTY4OTlKPT4uP/xAAaAQEAAwEBAQAAAAAAAAAAAAAABAUGAwIB/8QANBEAAQMCAgcHAwUBAQEAAAAAAAECAwQRBSESMUFRkdHwEzJhcYGhsSLB4RUjQlLxMxQ0/9oADAMBAAIRAxEAPwDcUAQBAEAQBAEAQBAEAQBAEBzXhbmQRmWR1Gj2k7gBvJXiSRsbdJ2o6wwvmejGJmpmV+bSTWh1Q50bAatY0kaaFxGrvhu4qjnqnyruQ1lJh8UDdV12qvWr5J/Zfa8kiG0nXJsp9wf/AIvbxUulrVVdCTjz5lbX4UiIskKeacuXDcXdWhQBAEAQBAEAQBAEAQBAEAQBAEAQBAEAQBAEAQBAEAQGW7W32bTLRp+iYSGcCdC/x3cu8qhq5+1flqTVz62Gvw6jSnjuveXXy5+JBKKWAQGjbCXyZYzC81fGBQnVzNB3kaeIVzQzq9ug7Wnx+DMYtSJE/tG6ney/nmWlTynCAIAgCAIAgCAIAgCAIAgCAIAgCAIAgCAIAgPy94aCSQANScgvirbWfURVWyFV2k2rhEUkcMmORwLQWg4RXInFocq0pXOigVFZHoK1i3XraXFFhk3aNfIlmpnnr4czPFTmmCAIDruu8X2eQSx0xAEUcCQQdQQCO/wC6RSujdpN1nGogZOzQfqLVZNvzpLADxLHU/dd+antxJf5N4dfcp5MDT+D+KfdORYbt2ns01A2TC4+bJ2T3DcT3EqZHVxSZItl8Ssnw6ohzVt03pn+eJyXrtnBES1lZXD0KYQebj8qrnLXRsyTNetp2p8JmlS7vpTx18OdiCl2+mPkwxD1i53wooi4i/Y1OuBYtwSJO85V4JzLXsze/wClQ9YQA8EteBWgIzFK7iCCrCmn7ZmltKaupf8AzS6CataEspBDCAIAgCAIAgCAIAgCA8JQEBeG2FliyDzIeEYqP2iQ32FQ5K6Jmpb+XPUWUOFVEmapop48tZCz9IB8yzinFz/kG/NRnYkuxvuT2YGn8n8E/J8G7fTb4Y/a4Lz+ov8A6odFwSL+y+x3WTb9h/WwObzY4O9xAXRmJJ/JvDPkR5MDcncei+aW5nRem28LWDqAZHkbwWtb61cyeQ9oXuXEGIn0ZrwOUGDSud+7knFV8uvQpF6XtNaDWWQkbmjJg7m6eOqrJZny99eRoIKWKBLRpbx28TiXI7hAEAQBAEAQBAEBcejaekkse4sDv2TT8QVjhrvqc3rrMpMcZeNj9y24/wCF+VuZsIAgCAIAgCAIAgCAIDnt/wCqk9R38JXl/dU6Q/8ARvmhi4WZQ3inqHwIAgCAIAgCAk7Js/apc2QPpxdRg/fIr4Lsymlfqavx8kWSup48nPT0z+LknHsNajqYW973fJpXdMPm8OP4Ii4zTJ/ZfROZ+zsHafTg/af/AIF9/Tpd6cV5Hn9ap9zuCczmn2NtbdGMf6jx+Ki8OoZk2X8l52OrMWpXa1VPNOVyHtlhliyljez1mkA9x0Pgo743M7yWJ0c0cvcci+pzrwdAgLV0dvaLQ/E4Bxjo0HfmC6nMYRl38FPw9USRb67FPjSOWBLJlfPw6uaKrkzAQBAEAQBAEAQBAEAQHj21BB3iiKfUWy3MSkjLSWnVpIPeDQrL20cl2G9RyOTSTaeIfQgCAIAgLVcWxkkoD5iY2HMN/wA4R45M8ankFPgoXPzfknv+Cnq8XZEujF9S+356zLrdtywQfqomg+kc3H7xz8FZxQRx91Chnq5p++702cCQXYjBAEAQHj2gihAIOoOYRUufUVUW6FavfYyCWrovoX/ZHYPe3d4U8VBmoI35tyX24FpTYvNHk/6k9+PMol7XRLZnYZW0r5Lhm13cfkc1VSwviWzkNFT1UVQ28a+m1DiY8tIc0kEEEEZEEZgjmuaKqLdDuqIqWXUajsnfv6VHR1BKygeOPB45H3HwV5SVHatz1p1cyOI0X/nfdvdXVyJ1SyvCAIAgCAIAgCAIAgCAyrbGxdVa5Msn/SN+95X7wcqCsj0Jl8c+vU2GGzdpTN3plw/FiFUYnhAEAQF92N2ZDQ20Tt7ZzjYfNG5xHpcBu79LajpLJ2j0z2eHXsZzE8RVyrDEuW1d/h5fPlruSsijCAIAgCAIAgCA+NrsrJWGORoc06g/1kea8vY16aLkuh7jkfG5HMWymZ7T7OOsrsTauhJydvafRd8jvVHVUywrdO6augr21KaK5OT38UI+57xdZ5myt3eUPSafKb/W8BcYZViej06QlVNO2eJY1/xd/Ww16zzNe1r2mrXAEHiCKhaNrkciKmoxL2KxytdrQ+i+nkIAgCAIAgCAIAgCArW3V09dCJWir4qnmWHyh4UB8DxUGvh02aSa0+C1wmq7KXQdqd87ORm+FUlzU3GFLi4wpcXLFsXcvXy9Y8VjjoSDo53mt5ganw4qbRQdo/SXUnyVmKVfYx6De872Tf8AY0tXhlAgCAIDkt15Qw/rZWM4AnM9w1K5yTMj7y2O0VPLL3GqpDy7aWUaGR3MMI/iooq4hDsvwJzcIqV12T15XDNtbKdTIO9n5EomIQ+PALhFQm7iSViv2zS5MmYSdGnsu8A6hXeOpif3XEWWinizc1fn3QkV3IoQHztEDZGlj2hzXChB0IXxzUcll1Hpj3McjmrZUMr2iuU2WXBmWOzjcd44HmN/gd6z9TCsL7bNnXgbCiq0qY9LamvrxLb0fW/FC6EnOM1b6rqn3HF7QrDDpdJisXZ8KU2MwaMqSJ/L5QtasSmCAIAgCAIAgCAIAgPhbrSIo3yHRjS72CtF4kejGK5dh0ijWR6MTatjHjnnlnwyHgNyy9zb6jyiH24ovlwavs9d36PAyOnapif6xzPs07gFpaaLso0bt2+Zjayft5lfs2eRJLuRQgPHuABJIAGZJ0A4lFW2an1EVVshRtoNr3OJjsxwt0MnnH1fRHPXuVNU4gqroxat5oKPCmtTTmzXdz64lSeSSSSSTqSak95OqrVW63UuksiWQ/NEPtxRBcFq+C5L3TtFPZ6AOxs9B5qKfZOrfDLkpUNZLFqW6bl6y6yINRQQz5qll3p1n1mX+5L7itLasNHDymHyhz5jn8FdU9SyZPp17jOVVHJTr9WrYpJqQRCL2juoWmFzPPHaYeDhoO46eKj1UHbRq3bs8yXRVK08qO2al8vwUfYycx2toOWMOYQe7EPHE0BU9C9Wzom+6dcDQYoxH0yrusvXE0xaAygQBAEAQBAEAQBAEBX9uJ8NlLfTe1v4z/CoGJP0Ybb1RPv9iywpmlUX3Iq/b7mdYVQXNOMKXBJbOWPrbTE06YsR7m9rPvoB4qRSM7SZqevDMi1svZwOd6ccjU1pjIBAEBR9tr5LnGzMPZb+sI3nXD3Dfz7lS4hVXXsm6k18jQYXSI1vbO1rq5lSoqu5ckzdezM84Dg0MYdHPqKjkNT7gpkNFLLnayePIg1GIwwra918OZNR7CDzrQfBlPi5TEwve72/JAXGl2M9/wAHNa9h5AKxysfycCw+GZHwXJ+GSJ3XIvtzO0eMxr32qnvyK7bLDJE7DIxzDz39x0I7lXyMfGtnpZSzimZKmkxboc+FeLnQ+tmmdG4PY4tc01BH9ZjkvTHqxdJq2U8vY17Va5Loppez18ttMdcg9tA9vPcRyP8AuWipalJ232prMpW0i077bF1EqpRDKFtBZOot8cjcmvex/jjAePn95UdUzsqprk2qi++fXiaOjl7ajcxdaIqe2XXgX1XhnAgCAIAgCAIAgCA/L3hoJJAAzJOQA5lfFVES6n1EVVshRNr75jnwMiJIaSS6lATSgpvO/NUNfVsls1mpDRYbSPhu5+tSt0VdctLiiXFyzbBQ1ne/0WU/acP8JVnhbbyq7cnz/hVYu+0SN3r8J+S9q9M6EBzXlauqifJ6LSQOJ3DxNFzmk7ONX7jrBH2kjWb1MocSSSTUkkk8ScyVk7quamySyJZC17H3CHUtEoqK/RtOhp5x456e3grbD6RHfuv9OfLjuKbEq5W/tRrnt5cy6q6KEIAgOe22NkzCyRoc08d3MHcea5yRNkbovS6HSKZ8TtJi2Uzq/wC5XWZ9M3Md5DvkftD3+4Z2qpnQOtrRdS9bTUUdW2oZfUqa062EXRRbku523Rb3WeVso0GThxadR8+8BdoJ1hkR6evkcKmBJ41Yvp5mpRyBwDmmoIBB4g5grUoqKl0Mg5qtVUXWRO0l0utAjLC0OY8Grq+SfKGQ5A+CiVdOsyN0daL7E2hqkgV2lqVPcmFMIIQBAEAQBAEAQHztE7WNL3kBoFSSvL3tY1XOXJD0xjnuRrUzUz2/r7faHUzbGD2WcebuJ5bves1V1jp1tqbu59ZGmpKNsCX1u38usyIoolyaKJcCiXBbNgB2pu6P4vVvhHef6fcpsY1M9fsXFXZRhAQe2TqWVw4uYP3gfkoGJranX0+SwwxL1CevwUKCEvc1g1c4NHeSB81nWppORqbbJxNG9+i1XLszNWgiDGtY0UDQAByAoFr2tRqI1NSGOc5XOVy61P2vR5CAIAgOG+rAJ4XRnXVp4OGh+XcSuFTCk0as4eZIpZ1hlR/HyMxLeIWU8zW3PKJcF+2LteOz4DrG4t+6cx8SPBaHDJdOHRXZl18GcxSLQm0k25k+rErQgCAIAgCAIAgCApG196dY/qWnsMPa5v8AyGnfXks9idVpv7NupNfiv4+S/wANptBnaO1r8fn4K7hVZctLjClxcYUuLjClxcsmw0lJXt9Jlf2T/wDZWuEvtK5u9Pj/AEqsWbeNrty/P+F1V+UIQEPtZDisz6ebhd7HCvuqoOJNV1O62yy+5Ow5+jUJ43QpF1mk0ROgkZ/EFnoHWlYvinyX9RnE5E3L8GnrXmSCAIAgCAIDNb9hw2iUD0yf2u181k6tqNneib/nP7mqpH6UDF8PjI4MKj3JNyz7CyUkkZxaD+ySPxK2wh31ub4J7f6VOLNuxrvH5/wuSviiCAIAgCAIAgCA57wlc2J7mAucGktAzzpllvXKd7mRuc1LqiZHWFrXSIjlslzMqVz15rG3NYMKXFxhS4uMKXFxhS4udlz2nqpmSbgaO9U5H2Vr4KRSzdlM166tvkvVzhUx9rE5vVzSVrzKhAfiWMOaWuFQQQRyIoV5c1HIrV1KfWuVqoqa0M2vGwuhkdG7doeI3H+uayE8LoZFjds+N/W01cMySsR6F4uC9BPGKnttFHj8Q5FaShqknjz7ya+fqZ6splhflqXVyJRTSIEAQBAEBnV/uxWmU/ap7AG/JZKtdeoevj9kQ1FGloGp4EfhUW5JuWHYlv0zz9j8TfyVthH/AFcvh9ysxVf2kTx+yl0WhKEIAgCAIAgCAIAgK3f2zuMmWEAO1czQHmOB+Pxpq7DdNVki17U3+Xj8lrSV+j9EmrfuKm9hBIIII1ByI7wqBUVFsusuUcipdDyi+C4oguKILiiC5eNmLx62LA49tlAebdx+R7ua0+GVXaxaC95vxsUoK+n7OTSTUvyTKsiAEBHXzdLbQ2hycPJdw5HiFDrKNtQ2y5KmpethKpap0DstW1CmzWaayvDjVhGjxm0+Oh7j7FnHxz0j7rku/Z14LwLxskVSy2tN20mrJtZlSWP7zD+E/mrGLGcv3G8OS8yBJhf9Hcef4PvNtbGB2Y5CftYWj2gn4Lq/GokT6Wr62T7qc24XIq/U5PdeR33HbZZmudJGGCvYpXMePhnvUyinlmarpG2TZ199pHq4Y4nI1jr7yTU0iHztMwYxzzo0EnwC8SPSNivdqTM9MYr3I1Npmkji4lx1JJPeTUrFOcrlVy61z4mraiNRETYfmi+H250WC2PheHsNDvG4jgeS7QTvhfpsX8nOaJsrdFxoN32xs0bZG6HUbwd4K1tPO2aNHt2mamiWJ6sU6F2OQQBAEAQBAEAQBAcV43VFN5bc9zhk4eO/uKi1NHFUJ9aZ79vXmSIamSHurlu2Fctmy0jc43NeOB7LvyPtCpZsHlbnGqOTgvL4LOPEo3d9Le6EVabBJH5cbmjSpGVeFdFXS08sXfaqdbybHPHJ3Vuc+FcbnS4wpcXPvYbS6J4kZqN24jeDyXWCd0L0e3Wnv4HOWNsrFa4vl325szA9p7xvB4Fa6mqWTs02f4Z2aF0TtFx1KQcQgPHNBFCARwK+KiKllPqKqZocElyWc5mFvhVvuBUR2H0y/wAE9MvgkJWTp/Jfk/dnumFhq2JteJzI7q6L1HRQRrdrEvx+Ty+qmelnOU7VKOAQFY2rvKv0DTwLz7w35nwVBi1Wi/sN9fsn34Fvh1Pb913pzKzhVHctbjClxcYUuLlh2PtNHuiOjhiHeNfaP4VcYNNaR0a6lz9U5/YrcSjuxH7suutpbFoylCAIAgCAIAgCAIAgCA+FtsrZWOjdoR7DuI7iuM8LZo1jdtOkUixvRyFCtVmdG8scMx7+BHIrGTROierH606uaOORsjUc3UfKi53PdxRLi597Fa3xOxsNDvG4jgRvXaCofA/TYufspzlibK3RcW+7L6jloD2H+id/qnf8VpqTEop8lydu5Lt+fApJ6N8WaZoSasSIEAQBAEBA3zfwaCyIgu0Ltze7if65Klr8UaxFZCt3b9ic1+PYsaWiV31Sat28qhzzKzly5FEuLnlF8vYH1s9lfIaMa53cPidAukUb5VtGir5c9R4fI1iXctizXHcJjcJZD2hWjRoKimZ3mh/4rQ0GGLE5JZFzTUibOurlTV1qSN0GaifVyVwQBAEAQBAEAQBAEAQBARV/3c2RhfkHMBIPIZkHkqzE6Ns0av1K1L38Ny9ZcSZRzrG/R2KU+iyVy8uKILiiC4woLnfZL3mjyD6jg7Mfn71NhxGohyR103Ln+fcjSUsUmtOBJw7T+nF4tPyI+as48d/uzgv2XmRHYd/Vx0DaaL0JfY3/ABLt+uQf1d7czl+nSb09+R8ptpx5kbj6xA+FVzfjrbfQxfVUT4ue24cv8ncCItt7Sy5OdRvotyHjvKqqjEJ58nLZNyZfn7eBNipY480TPxOGihEm4oguetZU0AqTkAF9S6rZD4q2zUuNzXUImdoAvObtDTgB3LXUFC2CP6ku5dfL0KOqqVkf9K5ISQCsSIeoAgCAIAgCAIAgCAIAgCAICO2gfSB/Og9pFfdVV2LP0KR1ttk4qhKo23mQp9Fjrl3cUS4uKJcXFEuLiiXFxRLi4olxcUS4uKJcXFEuLnrIySAASToBqvTUVyo1qXVQrkRLqWi5bn6vtvoX7hub/vWow7Dex/ck73x+f8TxqKqr7T6W6vkmFcEEIAgCAIAgCAIAgCAIAgCAIAgIzaJv0J72/Giqsa/+VfNPkl0S/u8SqYVkLlxcYUuLjClxcUXy59GFfbny4wpcXGFLi4wpcXGFLi4wpcXJ3ZaLtPdTQNAPfWvwCv8AAWXe99tyfP4K/EHZNQsK0pWBAEAQBAEAQBAEAQBAEAQBAEAQHNeUOOJ7d5GXeMx7woldCs1O9ia7ZeaZp7nWB+hIilOWC00Lw+kVnc7yWuPcCV2iikl/5tVfJPueXPa3vLYkrLcL3ZvIaOAzd+QVvTYJK/OVdFOK8k9/IiSVrU7uZOQWKNjcIaKb651766rRQ0cMTOza1Lbdt/MgPme92kqnwlueF3mU9Uke7RRpMJpH56NvJVT21ex0bVyptOV2zzNz3+OE/JRFwCHY93tyOqV79qIfiTZ4UOF5ruqBSq5PwFuiug9b7L2sem163zTIg3xlpIIoRqCs49rmOVrksqFgjkVLofmi83PoolwWu5LNgiFdXdo+OnuotphNOsNMl9bs19dXtb1Keqk05MtmR3qzIwQBAEAQBAEAQBAEAQBAEAQBAEAQH4ETfRb7AvCRMTUicD1pO3n7Xs8hAEAQBAEBx2672S65O3OGvjxCgVuHRVSXdk7enWadId4Z3R6tRCWi6JG6DEOLfy1WZqMIqYtSaSeHLXwuWDKqN22x+7qu0vdV7SGt1BFKnhnuXXDMNfNLpStVGt3pa67s9m/geaioRrbNXNSyLYFUEAQBAEAQBAEAQBAcl43lDZ245pWRt3FxAqeAGpPIICr2npLsTTRvXSc2soP3y0oDqu7pAsMpDTKYif8AtW4R4uzaPEoC0McCAQQQcwRoRyQHqAIAgCAIAgCAIAgPC4DUhAA4HQoD1AEAQBAEAQBAEAQBAEAQFe2z2nbYYq0DpX1EbDplq532RUd9QOYAymwXdbL0mc+pefPleaMYNwFNOTWj80BdLJ0VQgfS2mVzv+7DGD94OQHFe/Ra4Aus0+IjzJQAT3PblXvHigPl0bC3RWp1mLXNiZnMyQGjK1wlnBxPDIipzyKA1VAEAQBAEAQBAEBmfSVtdIyQ2OzvMeEAyvaaOq4Ygxp80YSCSM86ZUNQK3ZtgrdM0SmIDFn9I8B5rvIOY8c0Bp+w1wfoVlEbg3rHEvkppiOQAPJoaPbxQFhQBAEAQBAEAQBAEAQBAEBhu1NpfbrxcxprWQQRcAGuwV7icTvFAbLc11x2WFkEQo1o13uO9zuJJzQHagCAIAgKNePSGILY+zSQARsdR0uMk0w4q4AzM1NKVQEdaelcYvo7IS3cXyhp8WhrgPagLRsZtG+3RvldAImtcGtIeX4jSrvNFAKt46nggOLaTpAs9lcYmAzSjJwaQGNPBz88+QBpvogK03pVlrnZYyOAe4H24fkgJ3/KPA6zSTMYetZgrA92EkOe1hLXAEOAxV0rlmAgJfYzaQ2+J8piEeGTBQOx17LXVrhFPK9yAyra6bDeczyMQbM1xad4bhNPECiAtP8AlYP+hf8Av/8A5IDQLtt4ls8docAwPiZIQTUNDmB5BdlkK65ICm310nQxuLLPEZqZYycDPu5Eu9g5EoCMs3Sq+v0llYW78DyCPaKH3ICZvXpHhZDHNAzrcTi17HO6t7CAD2hhdWvEZZalAWi4Lx/SbPFOW4Osbiw1xUzIpWgr7EBTLB0osLniaz9W1rSQWPL3OcHNAYBhAFQSak0yQHBN0qyYuxZWBv2nkn2htB70BZtltu4LW4ROaYZTo1xq13JjsqnkQDwqgLYgInaHaKCxMDpnZnyWNze6nAcOZoOaAolp6VX1+jsrA3djeST7AKe9ASlx9JsMjgy0RmAnIPDsUf3jQFvsI4kIDjtvSi5kj2CyNcGvc0O645hriAf1e+lUBVdg/rODHrjkrX0urk/EgNzQFG6RbXbo3w/oYtFC1+Pqoy8Vq2mKjTTegKh/yrfXC3f+nd/8aA+dovy942l8jrYxo1c+EtaKmgqTHQZkBAWboxvy02maUTzOka2MEAhuRLuQG4FAUzbkf9YWgAVPWDL7rUBotw9HVljjb+kM62UgFxLnBoO9rQ0ioHE5nlogPNtra27rEILK0RmRxazCTVoNXSOBOdc6V3Fw4IClbB7H/ppdJIS2BhocPlPdQHCDuABFTzAHEAaM7YS7y3B+jAcw6TF+1iqgMx232VNhkbhcXwvrgcdQRq11Mq7wd+fBAXXod/ss39+f5caApe0bA69ntcAQbRGCDoQSwEHwQGs/81bD/odn/wDLZ+SApPSpe/Vtju+GjGBjXPDchhHZjjFNGjCTTk1AfjYfYFk0TbTasRa8VjiBLRh3OeRnnqADprWtABaLw2AsMjcLYeqdufG5wI8CSD4hAZFf9zvsk7oJKEtzDho5p8lw4d24gjcgNo2E+r7N6nzKAxS7LvdaLQyBhoZH4ancMyTzoATTkgNksmwlhZHgMAflm95JeedQez92iAzTbrZ39Anb1TndW8Y4zXtNc0ioryJaQdcxwqQNWuK+hJYWWuQ0pEXSEcWVEhA72uQGPtE96W3XtyHfm2OMZ09Vo9p5lAahd3R/YYmgOi611M3yF1T3AGjfAe1AVvbbYCOOJ1osgc3AMT4iS4YRmXMJzBGpBOmlKUIGboCx7T2d9hvFzmjSQTx8C1zsYHdXEzwKA2e6LyjtMLJ4jVrhXmDvaeBByKA7EAQGcdLV+tDG2Jhq4kPlpuaM2NPMmju5o4hAdfRHdZjs8locKGZwDfUZUA+Li72BAUnav61l/v2fgQG5IDM+maM/9Fd5o64eJ6oj3A+xATvRXK02BrW0q18gf3lxcK/dc1AW9AUXpflaLJG00xGYFo35MfiPdmB94ID8dDv9lm/vz/LjQFNv/wCt3f6zH/ExAbegMU6UoyLe+vnRxlvdhw/FrkBr1yzNfZ4Xs8kxsLacMIoEB2oDJOl+VptUTRTE2Ltdxc4tB958UBfdhPq+zep8ygMp2C+soPXk/lyIDdEBmXTPrZO6f/YIDvuSMuuBwbr1Np90kpI9iArvRHK0W1wNMToXBveHMcQOdBX7pQGwIDnvCZrIpHvpgaxxdXTCASfcgP5vboEBum22y7bdEMJDZmVMbjpnqx32TlnuIB4ggZZdl7Wy65nMoWGvbhkFWO3Ysj7HNOdN4QF0s3SrFT6SzSh32HMcPa7D8EBG310oSPaW2aIRV/zjyHOHc2mEHma9yAiNktk5rfJ10uMQk4nyurikNcwwnNxO92gz35IDaIIWsa1jGhrWgNa0aAAUAHKiAxHav61l/v2fgQG5ICF2vuIW2zOhqA8HFG46B4rSvIgkHkUBkVyXzabsne3AQchLC/IGmhqNDwcKjPeEBdHdKsWGossuOmhcwNr62v7qAoV/XxPbpHTyCoYB2Wg4I2FwaO6riBU6nwAA0Pod/ss39+f5caApt/8A1u7/AFmP+JiA29AUzpI2Ydao2zQtrNED2Rq9hzLR9oHMd5G9AUfZLbaWxDqXs6yIE9gnC5hr2sJppWtWnfwzQFjt/So3Aeosz8e4yloaOdGkl3dUd6Azq3TSzOdaJcTi95rIRkXUHZB0yFMhoKckBt+wn1fZvU+ZQGU7BfWUHryfy5EBuiAzLpn1sndP/sEBZejcA3bACKg9bUf+NIgM32nuKa7bSJIi5seLFBKN2/A77QGVD5Q8QALPd3So3ABaLO7GNXREYTzo4jD3VKAgNrNuJbaOojYY4iRVoOJ7zXIGg0rTsjfvKAqckZaS1wIIJBB1BBoQedUB/SiA47zuuG0NwTxMkG7EKkc2nVp5hAZVtPcFnhlLI48Irpjefi4oC07H7KWMsErrO1zvtlzh+y4lvuQF3ApkEB6gKTemzlmfaXSuiq8vDiccgzFKZB1NwQF2QBARl93JZ7S2k8LX0BoTUOG/Jwo4DkCgM0sOz1mdaerMdWVpTHJ8cVUBoF43BZm2R9nbC1sRLC5ratJIe0glwOImoGZO5Ae7I3ZFZ43thZhBfiIxOdnhaPOJ3AICIt2ztmdazM6Kr+sa7Fjk8oEUNA6m4bkBdEAQFb2r2csszHTSQNMgHljE1x3dotIxeNUBUNkdmrLNKRJFiAqQC59MuNHZ+KAt201xWeSOKN0TcDC7A1pcwNqBoGEICXuOzNigjjYKNa2gFScqnec0BV7i2bs0VoZKyKj2lxBxyHVrgci6mhKAuyAre2Fzw2gxdczFhx4e09tMWCvkkV0CAktnbGyGzsijbhY3FQVJ1e5xzJJ1JQHdabOyRpZIxr2uFC1wBBHMHVAZjtfs1ZYZQI4sIOZAc+mfCrsvBAW3ZLZ2ywsbNHA0SEeWS5zhu7JcTh8KICEtuylkdI9zoSS57iT1kupcSfO4oD//2Q==;" vertex="1" parent="1">
          <mxGeometry x="100" y="230" width="26.41" height="27" as="geometry" />
        </mxCell>
        <mxCell id="lsZqnblPNUROAZuHbKDy-10" value="" style="shape=image;verticalLabelPosition=bottom;labelBackgroundColor=default;verticalAlign=top;aspect=fixed;imageAspect=0;image=data:image/png,iVBORw0KGgoAAAANSUhEUgAAAMoAAAAtCAYAAADvJPSSAAAABHNCSVQICAgIfAhkiAAAABl0RVh0U29mdHdhcmUAZ25vbWUtc2NyZWVuc2hvdO8Dvz4AAAA1aVRYdENyZWF0aW9uIFRpbWUAAAAAANCy0YIsIDE3LdCy0LXRgC0yMDI0IDE1OjMxOjA3ICswMzAwXPgU3wAAFTpJREFUeJztnX9sW9d1xz/kI5/4SxQpyZRkSvQPxZYcyz8aO4kcN40Tz50bbymyxl7RAk26re3W9McGNB2w/TMMyIoCxYYCw9DCHZAMS9dmHYJ0tZMldes0ta3EseMfUmzZln9IomVTpvhD/E0+cn88vkc+PpKWFNtyU34BAuZ999537jn3nHvOuUe04cv/8IvC6s4CDTTQgBZt3Rt5Zlc3AKYvPjLL4LrZRSapgQbuMmSNvHCs9NUEQN4EUn6RKGqggbsPybTWyzIuEh0NNPA7hYaiNNDAHNBQlAYamAMaitJAA3NAQ1EaaGAOMC02AbcDUjKp+S5YrYtESQMfFdRXFMEIglD6Lkn108jz7X+rIRiJjfsZe/nnZGdnADA3t9K75wkcPu+doaWSB/Vwp/nTwIJRV1FCI6OERy8g2OwAWNwtOFcux7LEXVXAsXE/0++dAECw2fFs2lCz722BIDD93glmx05jcrgAyIT8TL/nw7HCd9vpkJJJolcmmZ2YunnfRBy7dymezRtuK00N3BpUVxTBSOCd9zn3wl6MZu0j0e3lY8/9NYLDrtl4UjLJ+f98ieS1yxgEG1IqQWj4DBv+5iu3k3496Ta7hmaDYLtDLzYSHDlXlWe1YGxyYevy3LnT7m6CYAQpr7rJgtWqtt2NqKEoAv4DbyJYbBhMouZRJuTnwiuv0/e5J8v6G8kmM4AsfADBIj+SksnfjxhBEJg+eboqz2qhkMuQnY3dZsLuQhQN8YWX9pLPyk0mh4uBrz971xqNulmvagI3NrmYOX6EmH9KtgANLAiFXGaxSVg8SHni/quArCAmh4t8OkxiKrDIhNXGgrNeV14/wNq/+uLCtV9RsmqB71yC3GqJg4XSUUmDMtctsGwmmx2hqbovZuvpxbmsu0SHhoYq767Vp157NR7Nl7fl4+eSzCl/T/lcFTKq6hZr6K14V609U4+uarxZQNJpQYpiMIlEz5widOoD3Gv75j+BaCZ17QbRi5cJnbtILhknF41jctpp9vlovXcVDm9X9bFFP1ZJHCRuBAFwreqjbWC1TN9c4hLBiBSLE70ySXj0AokbQXLROJYOD47ubtoGVn/oREQhl6Ftw1ZW/MmuuoJMTYeIXrxMKhQB5KRJ29rVGpc1NRPR9Gnu6VJ5Hxv3ExmbREon5fb+VWpiIXB8mNT1ACanXeVRzXXV4InJacfW3oar7x6cy7p18SnILnZw5BypUERN+pitIteODhM+PwqUZBS9eFmVmwKDYCN07qL63blyOZbWFk0fZZ3h86M6utz9q6rGOKGRUWYnphCarLT0duPwdhEaGeXqoXfIReM4V/roevihm8r6Q92jXD30TonAuUIwEjr1AWMv/4xMyK/d1H6IDA8xuR+6tu3C98lt+qRBLM74GweZOrgPKClFZHiIif0urB09N48RRDOxS+OMvfxz4uOnNTQk/GMEjyaY2O9i5VO78Tz4sQ9/sghCHUUROLN3L/GJy2oSIJ8F745drNj9BGSyIJoZffEnzI6d1vTZ/I/PA3DiO8+r7QbBhu+J3dw4dly7tiJvpw566f/zZ+QsYCar4Unq2g3GXvlfQu8PYTSjGRsF/G/uo7l3nZxurxg//sZB/G/uw2iWaWvuXYfJaScyPKTOEz1zisARD/GJy7pYzmASmTl+hODRA+r4gb/8gir/S6++xrW3f01BSlSla8lD27nnyZ2l/SIYCY2MMvKv31d5Y2xy0bFlK1MH96lzzI6dBpB5fTsUxWASCb0/ROC9dXge2jynMVIyydkf/w+h94cwOVxq4F85L8DUwX1cP3KIjd9+rqTtopnhf/kh8fHTurHKuOT1ifpEiGYCh9/jwkt7MQi2ujSce2Ev0ycHWfvlL3x4ZREr3K+y497W00vy2mWVFmMTXD9yiCWbN+JY4SN06gNNylvpY+lsJ3ZpvPi99OzKKy9WXZvBJJKNhjj1vedZ85VvyidSka/lPCl/TzlMDpGEf4wT33meFXuexvvog+oaMvGUuvmNTbIcCv6MjoZ0KFxzfoNJVMdnZ2fUBNHwD/5DlXk1I2hyyEr2ztEDrP/W38sJASAbS2A0a3lz7e1fa74LFnSnWzV8qGhcsNiYensIKRKdQ2cj144OExke0jGqkMuQT4e1hDXJAd6V13+ljo9dGpetapN+/FwhRaJc/Nl/YxBKFq2Qy6hzlM9lcriIDA8RG/cvKHFhMIlEL44zvu+A7hMaGS0SJLFs52OIbq9uTf63hiCT5eqhdxAspVMvnw6z8qndNd9ba0MpNBkEG+OvlfiaunaDCy/t1Y1T5FLOE4NJxORwMXXwl6SmQ3X5UouGm8mr/Ln/t0d1hrGarJR1+d8aqmvU5pqRrMScpV/IZVi6/ZOaDW0wicTHTxMcOYfZWoeAou87sf9V3SY32ex0PvwoXTt20+R2aRZvbHIROnVM3lRSHv9bQ5oNA/KmsXl7sXb06JStGvy/PUo+HdYoic3bS/9ffIm+Z57GuWa9VgCCjSuvH1jwiZK8PsHk/pd1nzM//D6pmWJMssSNZ8tWHW+DRw8w/uZviJ45paG3ZWBQvqisk8BQ1mDt6NF8V+ZOXp+QDQAw9fZh3fh8OkzrfVvofnwPNm+vbnNnQn7ZiN2kCqGQy5CLhcnFwuTTYTq2bMWyxFOzv8lmx2AS6dr2BwBM7n9Zs2fy6TDeP/wjBr7+LL4ntMZC4Zmcka1Pl0KTlEpga2+r2xfm4XpJqQSeTRsIDZ8h4R9TBWdscjG+fz/OlctrDxYEdYNWKsrA174qu1ZAanAjZ/buJR0qbZh8Okz44lWsHg+hU8d0Fq9rx25WPP4IAONv/oarB96ovYZkksCRQ5qYxOx00/f0Z7F0tgPgXNbN8A/imjVmblwjNRNZcHBfzb3LxcqUWsrj2/EJ/P/3C924qwfe0K5ZSrB064N1LXkhl8G5Zj29T/4xltYWQmfPM/rCi5o++XSYmQ/OY7LauH7kkM5iL3vyabyfuB8EI74dn+DSq68xdXBfmXvoYvbCWaRItOY9WT4dpu3+7Szb+RjRi5cxO2y41/YhxbZx4ZXXmTl+RF1bPh1W3yklkwgtTsb3HdCtq2vbLny7tgPgWOFDSid1yhQZm5RjqBq8MTvdDHz9WQASUwHa1q7WxmtVMK8YxdLaQtfDg5x74TQmR0l4mZCfqbcPYxSbgepWPTkd1GzQfDpM17Zd8gYtEmlZ4qbtvgc0CzcINjLhGXLJhE7RLEs8dA1uVLMdvp3bmB0f11hgDQ0zYVIBv871Cxw7qfmez8yq4w0mkXQoTC6ZANxzZ1YZ5uQaimZ8T+zmyisvVlUsZZ6WgUE5gaKkOWug/3OfUQNbd/8q3Os3aTamQbCRnA5W5avN20vn/QOlLJJgpOvhh9QEioJcIk42mamqKIVcBrtvnRpgK8YQKY9gtSLaLboxZpsIohkBIJNldnxcl8HMxFMaBarcVwbBRiZ0oyZfzE43vXueKpY0SXO+4JyXokjJJJ6HNjO+fz/ZaEhzqgRPnqg9MJMldV1/meTqu0fnPjT3aNPCBpNI6npAdxlVyGUQ2zs1ioYg0OzzyZmWKoqSmAroyktyiTiT+1/WtFVu1Lm4dLXQ5HYhtnfq2pt9Pjn9qQgpk6Xz/gHC5wdrKrrBJLJs5/ablnoYTCJCi7PEF9GMo7ub4NGEZt5cMk5kbFIztpDLYHLateOlPGariLVzuea0L+QyJAMBXRoX5JOv6+FB7TxzQXE/SMkkuWi8amasICVKbYK+EqJWcF7IZbB6+3Gvv3d+NLGQrJck0bvnKc7+aK+mOZeI1xySmolorLQCc7ND1zcbS+jbZmdIhSI662Ky2udDOdlEdctey4IrWGi9WCGXwdW/lhWf/tScSv+FFie29jZqpUaa3C75fmm+7p8kyda6ArlonEzoxpz5KqX1mysbS9RPdCzkIrhYEpXP6H8dSMmM1UJBSsx7X8wFC0oPu/tX4Vyzvqblq4TZKmIUmynkApr+1eqczA6t0Aq5DObmHoQmq5xDr7CI80G1zQIV8UIVLHloO9ZW18JTxIo7cRNIkSjhsyM1eZqaDhB47+T873YEoaqRsHR41MrwctTiq9BkJldmxwwmEVuX59bXZtWZL58Oq/Vh1WByuPA+Mnhr6WFBJ4rssy7d+mBNF6cSgsOOyWkHv7Y9EQjjXq+9jEsE9JvW0uHB5tHfCeSicW0wKUk6n7UcZoeNfFa+g1DQ5Hax8dvP1aTdbBXvTFGnaGb81ddITQdq8tRgEvEfeFN3a18V5a5FJktsclLHF9FuobmnS2+AonHt+KKFr0abyXp7qrOrGdd8Osw9n/9S3cSRKq+FljTVwMLuUYoBYsvA4NwCVUHQHYfGJheBI2+pN8+IZqRYnBvHjmszMFIC65I2zM0OnSVJXp8gOHJOHR94531dZqwcVo9HF6Mogbqlsx3LErf86WxXP9lk5tYUfxZp1H1ATp9HovKNcUVWr5K/yWuXuXZ0WH+BWYZCLsPoj19R3xvzT+kzhlIC0d2u46uSOg6dPV+iURCYevuwJjZQUC0+WSiyiYyc1hXNCC1OLB3aNLJS5qLKp0JW6hXFbSjWXXgJi2Bk2c7tDJ8/e/O+koTnvgGmDx/QZMtS0wHe/+73aLvvAQCCx9/VWS1jk4vWe1dhbXXR3LtOk7YFGPvJS0yflMsQIsNDdeMNs1XE7tPPcfbfX8CzZSut964CZJcwPHqB4MkTpAJ+fJ/eg2/ntnm7GAaTSPDkCcJnR/QsSWexenvk7JTVyoVXXtdY/EIuQ+t9W8gl4xoX19gkX/apNVs13jtz/AjvT4whtncyW0VGxiYXLb3dKl8rKxrO/mgvnQ8/iuhuJ3x+lOiZU7r7jK5tu2RFmmdgjGhGdLdrTjLFcN44dpx8ZhZbT68uAaHck4wk4yzd+iDmZgfZ2RiJQFgt2bF2Lmf9N56Vkwi3EAtXFCmPw+fVpR1rwd2/SrfRldSrknWqvBlW8vAObxcIRtwDa+T6pYpMSPTMKXV8PQgOO+2b7uNKxRxK5mtyf6mvkk0RLHIatW69Vh3kEnGNX6+gkMuQCfmJXpEFXslDg0lUfe1KY5SNhph6+7Bcn1QDCm+ruUvKPYtS6lFK+bs048trqyrnEN1elmzeuDAXp0ZyIR0KU8iVspveRwZ1MjU2uYieOUVkeAiQ68qUujRjk4vUdEBOWd+6g05+b72Hc3Grlu187OZvKcY1vXuewGASdfMam/R1X/l0GGvncu55cqeaDvV+/H5Et1c3vjwTUpdmKY/30QdpGRisWjJT/lHnkxJVc/4fFkrJRTaWYOzln2ue5dNh3Os34Vjhw+Htwr1+k+7W3v/mPlLXat8XlPctRyGXKaWZAaQ8noc2Y+9ZXrVcpVZZS+kuomQ8qrlmVSHlaVu7uqYsQT5xTVYbfc88XZMuY5NLrRlcaGnKXKFXlKJ/ZxSbMZhE8ukwpuKf16p/rqn0k/JYlrjp/ezn1X75dFgtEXGu9JWOwOIJtPHbz6llIsqYQi6DqZh9yafDmFzdtAwMykdoWTWo4LAz8LWv4lyznlysNFaBUnZRXgojpRLazI4g0P+5z9C1Y3fpfUW6lfnK28SOgdJ9Ty3fVzCCJLFkwzoNzxRelM9f3laQEmQTGbmAUEqoz41NLtkASRKIZo1lVcYCBIfPqcG0ydWtrll5rsxX/m9z+0r6nnlaPU0UrP/Gs3Q/vgez012Xfpu3Vy6oVO4iyngiur36OyellEQwlvoWYxDf449jWeJRZamMNZhErN4eLK0tuNf2seYr38Tm7dXQouyZyrbOx3apcZOSvFGeG0xiKVYuiw81e7oGDEd+/V+FwbXJkmWINEGri8j5y2THM0QKl2lLLcXQ56Bl1XIyAStidxImctAhe26ZgJVE+hS5cwVSZnmxlqwL+xYn1tl2uZ8IydNxrOvsMJEjODlBOHSettRSrgaP47T1YPYsJWuIYC600LGjD0JFKt1lY0NALEckOklhNKaOtbR6Ma024BJXEIlOMjsVwJJ1ESlcZqnvQayri2fx9Rz0mGBCniMdB2Mww2ziBObUEiSLmZw1QVtqKWxooinpweptkS/lr4WhJa3nYpFnADcOnFN5lmiXN4kYF4gULtNiWE7GLrsqthuSzFNnN8HJCZLxaRxRG0HLVVzuVbT1r9CsO3jkErlYhlj2Cm2ppcScCbo3PQCxHO/96Hnu2fAZDS/sW5ykf3WDSEGWh93mkXnRs1XmYwZVlsnhiMwfERKHY0yFD9OWWqqObTG4CFqu4jAvo2Nzn1YeEzlwmMAO4V8Mq/1MDpG2LSu0cquUZQaS5yJcHX9H8z67zaPdO0ByNE7adhVOpok5E0iRDC0GF1eDx1nadh+ZbgcenwuyDlW+OExErl6mMBojaLlKi2E57QMrocdUla5y+SbTBX46vFP9bx+0iiIY4UoA3hUgOgGpIKzZDmcOgGcjRCeI+C/Q8vGn5La2VRCfgewUrP4UjL0LzcVb6PCI3HbmAFjawN5aaht7F4wiOHsg+C4RzyZagpertwG4eiH4LrQ9AOExyMwS6VpHy9Rpla5qtGraKmlV2sppVeiqRqu9FVZlYNM92lhFMMKNWfhlSDv/udfAtVbPi8p3Kvwprrtum9hc4oXSBsTtfcz89J9o/dO/I3nodZKTx+l57t9kGtoe0PKivG0RaNXQUJSljq5qtJa33S5ae6ZhsB+k/E0URRH8B+Ngt0B3Oxw9B/evhtFJuW1lFxwakdsmiz5ysU0a6EEIxiGegnUrSm2pPARC+rYr1+GBPnh3FJZ1kCrksIxdh61r1TbJYkQYnpDbTl8Cjxvcdpmuwf47T2u1DI9iYACWeWDobOmd8RTc64Ohs/XfWcYLqa9L15bytcl3BKNTsrIeuwDLOoglolx69nni/S4c02HCVvnSbfCzfwYbV5Z4UUnXItCqylKRW7ksy+V2B2nV0VXUg5sriiJ4KJ0y5QV4t7NNeXe9tsWgq7ytFhaJF7FxP6e+97wuGTL4z9/VxhCLLbe7RZY3o6uISkWpnh4u3xDKv+9E251+30LaamExeFHcCJXVBppMUkNu839eBY3fG/pdhpTH2urC3rNc88dRnQ8/utiUfeTwkfyR7t8nCFYrH/vbb2mqkwWrdf635Q3URUNRPiL4vfg1zkVEw/VqoIE5oKEoDTQwB8iulzHXUJkGGiiDtUIhTPvPrObQFcMikdNAA3cvNvSXQnhDoVAo1OnbQAMN0HC4GmhgTvh/6VcsHDZyee4AAAAASUVORK5CYII=;" vertex="1" parent="1">
          <mxGeometry x="680" y="55" width="67.33" height="15" as="geometry" />
        </mxCell>
        <mxCell id="lsZqnblPNUROAZuHbKDy-11" value="" style="shape=image;verticalLabelPosition=bottom;labelBackgroundColor=default;verticalAlign=top;aspect=fixed;imageAspect=0;image=data:image/png,iVBORw0KGgoAAAANSUhEUgAAAMoAAAAtCAYAAADvJPSSAAAABHNCSVQICAgIfAhkiAAAABl0RVh0U29mdHdhcmUAZ25vbWUtc2NyZWVuc2hvdO8Dvz4AAAA1aVRYdENyZWF0aW9uIFRpbWUAAAAAANCy0YIsIDE3LdCy0LXRgC0yMDI0IDE1OjMxOjA3ICswMzAwXPgU3wAAFTpJREFUeJztnX9sW9d1xz/kI5/4SxQpyZRkSvQPxZYcyz8aO4kcN40Tz50bbymyxl7RAk26re3W9McGNB2w/TMMyIoCxYYCw9DCHZAMS9dmHYJ0tZMldes0ta3EseMfUmzZln9IomVTpvhD/E0+cn88vkc+PpKWFNtyU34BAuZ999537jn3nHvOuUe04cv/8IvC6s4CDTTQgBZt3Rt5Zlc3AKYvPjLL4LrZRSapgQbuMmSNvHCs9NUEQN4EUn6RKGqggbsPybTWyzIuEh0NNPA7hYaiNNDAHNBQlAYamAMaitJAA3NAQ1EaaGAOMC02AbcDUjKp+S5YrYtESQMfFdRXFMEIglD6Lkn108jz7X+rIRiJjfsZe/nnZGdnADA3t9K75wkcPu+doaWSB/Vwp/nTwIJRV1FCI6OERy8g2OwAWNwtOFcux7LEXVXAsXE/0++dAECw2fFs2lCz722BIDD93glmx05jcrgAyIT8TL/nw7HCd9vpkJJJolcmmZ2YunnfRBy7dymezRtuK00N3BpUVxTBSOCd9zn3wl6MZu0j0e3lY8/9NYLDrtl4UjLJ+f98ieS1yxgEG1IqQWj4DBv+5iu3k3496Ta7hmaDYLtDLzYSHDlXlWe1YGxyYevy3LnT7m6CYAQpr7rJgtWqtt2NqKEoAv4DbyJYbBhMouZRJuTnwiuv0/e5J8v6G8kmM4AsfADBIj+SksnfjxhBEJg+eboqz2qhkMuQnY3dZsLuQhQN8YWX9pLPyk0mh4uBrz971xqNulmvagI3NrmYOX6EmH9KtgANLAiFXGaxSVg8SHni/quArCAmh4t8OkxiKrDIhNXGgrNeV14/wNq/+uLCtV9RsmqB71yC3GqJg4XSUUmDMtctsGwmmx2hqbovZuvpxbmsu0SHhoYq767Vp157NR7Nl7fl4+eSzCl/T/lcFTKq6hZr6K14V609U4+uarxZQNJpQYpiMIlEz5widOoD3Gv75j+BaCZ17QbRi5cJnbtILhknF41jctpp9vlovXcVDm9X9bFFP1ZJHCRuBAFwreqjbWC1TN9c4hLBiBSLE70ySXj0AokbQXLROJYOD47ubtoGVn/oREQhl6Ftw1ZW/MmuuoJMTYeIXrxMKhQB5KRJ29rVGpc1NRPR9Gnu6VJ5Hxv3ExmbREon5fb+VWpiIXB8mNT1ACanXeVRzXXV4InJacfW3oar7x6cy7p18SnILnZw5BypUERN+pitIteODhM+PwqUZBS9eFmVmwKDYCN07qL63blyOZbWFk0fZZ3h86M6utz9q6rGOKGRUWYnphCarLT0duPwdhEaGeXqoXfIReM4V/roevihm8r6Q92jXD30TonAuUIwEjr1AWMv/4xMyK/d1H6IDA8xuR+6tu3C98lt+qRBLM74GweZOrgPKClFZHiIif0urB09N48RRDOxS+OMvfxz4uOnNTQk/GMEjyaY2O9i5VO78Tz4sQ9/sghCHUUROLN3L/GJy2oSIJ8F745drNj9BGSyIJoZffEnzI6d1vTZ/I/PA3DiO8+r7QbBhu+J3dw4dly7tiJvpw566f/zZ+QsYCar4Unq2g3GXvlfQu8PYTSjGRsF/G/uo7l3nZxurxg//sZB/G/uw2iWaWvuXYfJaScyPKTOEz1zisARD/GJy7pYzmASmTl+hODRA+r4gb/8gir/S6++xrW3f01BSlSla8lD27nnyZ2l/SIYCY2MMvKv31d5Y2xy0bFlK1MH96lzzI6dBpB5fTsUxWASCb0/ROC9dXge2jynMVIyydkf/w+h94cwOVxq4F85L8DUwX1cP3KIjd9+rqTtopnhf/kh8fHTurHKuOT1ifpEiGYCh9/jwkt7MQi2ujSce2Ev0ycHWfvlL3x4ZREr3K+y497W00vy2mWVFmMTXD9yiCWbN+JY4SN06gNNylvpY+lsJ3ZpvPi99OzKKy9WXZvBJJKNhjj1vedZ85VvyidSka/lPCl/TzlMDpGEf4wT33meFXuexvvog+oaMvGUuvmNTbIcCv6MjoZ0KFxzfoNJVMdnZ2fUBNHwD/5DlXk1I2hyyEr2ztEDrP/W38sJASAbS2A0a3lz7e1fa74LFnSnWzV8qGhcsNiYensIKRKdQ2cj144OExke0jGqkMuQT4e1hDXJAd6V13+ljo9dGpetapN+/FwhRaJc/Nl/YxBKFq2Qy6hzlM9lcriIDA8RG/cvKHFhMIlEL44zvu+A7hMaGS0SJLFs52OIbq9uTf63hiCT5eqhdxAspVMvnw6z8qndNd9ba0MpNBkEG+OvlfiaunaDCy/t1Y1T5FLOE4NJxORwMXXwl6SmQ3X5UouGm8mr/Ln/t0d1hrGarJR1+d8aqmvU5pqRrMScpV/IZVi6/ZOaDW0wicTHTxMcOYfZWoeAou87sf9V3SY32ex0PvwoXTt20+R2aRZvbHIROnVM3lRSHv9bQ5oNA/KmsXl7sXb06JStGvy/PUo+HdYoic3bS/9ffIm+Z57GuWa9VgCCjSuvH1jwiZK8PsHk/pd1nzM//D6pmWJMssSNZ8tWHW+DRw8w/uZviJ45paG3ZWBQvqisk8BQ1mDt6NF8V+ZOXp+QDQAw9fZh3fh8OkzrfVvofnwPNm+vbnNnQn7ZiN2kCqGQy5CLhcnFwuTTYTq2bMWyxFOzv8lmx2AS6dr2BwBM7n9Zs2fy6TDeP/wjBr7+LL4ntMZC4Zmcka1Pl0KTlEpga2+r2xfm4XpJqQSeTRsIDZ8h4R9TBWdscjG+fz/OlctrDxYEdYNWKsrA174qu1ZAanAjZ/buJR0qbZh8Okz44lWsHg+hU8d0Fq9rx25WPP4IAONv/oarB96ovYZkksCRQ5qYxOx00/f0Z7F0tgPgXNbN8A/imjVmblwjNRNZcHBfzb3LxcqUWsrj2/EJ/P/3C924qwfe0K5ZSrB064N1LXkhl8G5Zj29T/4xltYWQmfPM/rCi5o++XSYmQ/OY7LauH7kkM5iL3vyabyfuB8EI74dn+DSq68xdXBfmXvoYvbCWaRItOY9WT4dpu3+7Szb+RjRi5cxO2y41/YhxbZx4ZXXmTl+RF1bPh1W3yklkwgtTsb3HdCtq2vbLny7tgPgWOFDSid1yhQZm5RjqBq8MTvdDHz9WQASUwHa1q7WxmtVMK8YxdLaQtfDg5x74TQmR0l4mZCfqbcPYxSbgepWPTkd1GzQfDpM17Zd8gYtEmlZ4qbtvgc0CzcINjLhGXLJhE7RLEs8dA1uVLMdvp3bmB0f11hgDQ0zYVIBv871Cxw7qfmez8yq4w0mkXQoTC6ZANxzZ1YZ5uQaimZ8T+zmyisvVlUsZZ6WgUE5gaKkOWug/3OfUQNbd/8q3Os3aTamQbCRnA5W5avN20vn/QOlLJJgpOvhh9QEioJcIk42mamqKIVcBrtvnRpgK8YQKY9gtSLaLboxZpsIohkBIJNldnxcl8HMxFMaBarcVwbBRiZ0oyZfzE43vXueKpY0SXO+4JyXokjJJJ6HNjO+fz/ZaEhzqgRPnqg9MJMldV1/meTqu0fnPjT3aNPCBpNI6npAdxlVyGUQ2zs1ioYg0OzzyZmWKoqSmAroyktyiTiT+1/WtFVu1Lm4dLXQ5HYhtnfq2pt9Pjn9qQgpk6Xz/gHC5wdrKrrBJLJs5/ablnoYTCJCi7PEF9GMo7ub4NGEZt5cMk5kbFIztpDLYHLateOlPGariLVzuea0L+QyJAMBXRoX5JOv6+FB7TxzQXE/SMkkuWi8amasICVKbYK+EqJWcF7IZbB6+3Gvv3d+NLGQrJck0bvnKc7+aK+mOZeI1xySmolorLQCc7ND1zcbS+jbZmdIhSI662Ky2udDOdlEdctey4IrWGi9WCGXwdW/lhWf/tScSv+FFie29jZqpUaa3C75fmm+7p8kyda6ArlonEzoxpz5KqX1mysbS9RPdCzkIrhYEpXP6H8dSMmM1UJBSsx7X8wFC0oPu/tX4Vyzvqblq4TZKmIUmynkApr+1eqczA6t0Aq5DObmHoQmq5xDr7CI80G1zQIV8UIVLHloO9ZW18JTxIo7cRNIkSjhsyM1eZqaDhB47+T873YEoaqRsHR41MrwctTiq9BkJldmxwwmEVuX59bXZtWZL58Oq/Vh1WByuPA+Mnhr6WFBJ4rssy7d+mBNF6cSgsOOyWkHv7Y9EQjjXq+9jEsE9JvW0uHB5tHfCeSicW0wKUk6n7UcZoeNfFa+g1DQ5Hax8dvP1aTdbBXvTFGnaGb81ddITQdq8tRgEvEfeFN3a18V5a5FJktsclLHF9FuobmnS2+AonHt+KKFr0abyXp7qrOrGdd8Osw9n/9S3cSRKq+FljTVwMLuUYoBYsvA4NwCVUHQHYfGJheBI2+pN8+IZqRYnBvHjmszMFIC65I2zM0OnSVJXp8gOHJOHR94531dZqwcVo9HF6Mogbqlsx3LErf86WxXP9lk5tYUfxZp1H1ATp9HovKNcUVWr5K/yWuXuXZ0WH+BWYZCLsPoj19R3xvzT+kzhlIC0d2u46uSOg6dPV+iURCYevuwJjZQUC0+WSiyiYyc1hXNCC1OLB3aNLJS5qLKp0JW6hXFbSjWXXgJi2Bk2c7tDJ8/e/O+koTnvgGmDx/QZMtS0wHe/+73aLvvAQCCx9/VWS1jk4vWe1dhbXXR3LtOk7YFGPvJS0yflMsQIsNDdeMNs1XE7tPPcfbfX8CzZSut964CZJcwPHqB4MkTpAJ+fJ/eg2/ntnm7GAaTSPDkCcJnR/QsSWexenvk7JTVyoVXXtdY/EIuQ+t9W8gl4xoX19gkX/apNVs13jtz/AjvT4whtncyW0VGxiYXLb3dKl8rKxrO/mgvnQ8/iuhuJ3x+lOiZU7r7jK5tu2RFmmdgjGhGdLdrTjLFcN44dpx8ZhZbT68uAaHck4wk4yzd+iDmZgfZ2RiJQFgt2bF2Lmf9N56Vkwi3EAtXFCmPw+fVpR1rwd2/SrfRldSrknWqvBlW8vAObxcIRtwDa+T6pYpMSPTMKXV8PQgOO+2b7uNKxRxK5mtyf6mvkk0RLHIatW69Vh3kEnGNX6+gkMuQCfmJXpEFXslDg0lUfe1KY5SNhph6+7Bcn1QDCm+ruUvKPYtS6lFK+bs048trqyrnEN1elmzeuDAXp0ZyIR0KU8iVspveRwZ1MjU2uYieOUVkeAiQ68qUujRjk4vUdEBOWd+6g05+b72Hc3Grlu187OZvKcY1vXuewGASdfMam/R1X/l0GGvncu55cqeaDvV+/H5Et1c3vjwTUpdmKY/30QdpGRisWjJT/lHnkxJVc/4fFkrJRTaWYOzln2ue5dNh3Os34Vjhw+Htwr1+k+7W3v/mPlLXat8XlPctRyGXKaWZAaQ8noc2Y+9ZXrVcpVZZS+kuomQ8qrlmVSHlaVu7uqYsQT5xTVYbfc88XZMuY5NLrRlcaGnKXKFXlKJ/ZxSbMZhE8ukwpuKf16p/rqn0k/JYlrjp/ezn1X75dFgtEXGu9JWOwOIJtPHbz6llIsqYQi6DqZh9yafDmFzdtAwMykdoWTWo4LAz8LWv4lyznlysNFaBUnZRXgojpRLazI4g0P+5z9C1Y3fpfUW6lfnK28SOgdJ9Ty3fVzCCJLFkwzoNzxRelM9f3laQEmQTGbmAUEqoz41NLtkASRKIZo1lVcYCBIfPqcG0ydWtrll5rsxX/m9z+0r6nnlaPU0UrP/Gs3Q/vgez012Xfpu3Vy6oVO4iyngiur36OyellEQwlvoWYxDf449jWeJRZamMNZhErN4eLK0tuNf2seYr38Tm7dXQouyZyrbOx3apcZOSvFGeG0xiKVYuiw81e7oGDEd+/V+FwbXJkmWINEGri8j5y2THM0QKl2lLLcXQ56Bl1XIyAStidxImctAhe26ZgJVE+hS5cwVSZnmxlqwL+xYn1tl2uZ8IydNxrOvsMJEjODlBOHSettRSrgaP47T1YPYsJWuIYC600LGjD0JFKt1lY0NALEckOklhNKaOtbR6Ma024BJXEIlOMjsVwJJ1ESlcZqnvQayri2fx9Rz0mGBCniMdB2Mww2ziBObUEiSLmZw1QVtqKWxooinpweptkS/lr4WhJa3nYpFnADcOnFN5lmiXN4kYF4gULtNiWE7GLrsqthuSzFNnN8HJCZLxaRxRG0HLVVzuVbT1r9CsO3jkErlYhlj2Cm2ppcScCbo3PQCxHO/96Hnu2fAZDS/sW5ykf3WDSEGWh93mkXnRs1XmYwZVlsnhiMwfERKHY0yFD9OWWqqObTG4CFqu4jAvo2Nzn1YeEzlwmMAO4V8Mq/1MDpG2LSu0cquUZQaS5yJcHX9H8z67zaPdO0ByNE7adhVOpok5E0iRDC0GF1eDx1nadh+ZbgcenwuyDlW+OExErl6mMBojaLlKi2E57QMrocdUla5y+SbTBX46vFP9bx+0iiIY4UoA3hUgOgGpIKzZDmcOgGcjRCeI+C/Q8vGn5La2VRCfgewUrP4UjL0LzcVb6PCI3HbmAFjawN5aaht7F4wiOHsg+C4RzyZagpertwG4eiH4LrQ9AOExyMwS6VpHy9Rpla5qtGraKmlV2sppVeiqRqu9FVZlYNM92lhFMMKNWfhlSDv/udfAtVbPi8p3Kvwprrtum9hc4oXSBsTtfcz89J9o/dO/I3nodZKTx+l57t9kGtoe0PKivG0RaNXQUJSljq5qtJa33S5ae6ZhsB+k/E0URRH8B+Ngt0B3Oxw9B/evhtFJuW1lFxwakdsmiz5ysU0a6EEIxiGegnUrSm2pPARC+rYr1+GBPnh3FJZ1kCrksIxdh61r1TbJYkQYnpDbTl8Cjxvcdpmuwf47T2u1DI9iYACWeWDobOmd8RTc64Ohs/XfWcYLqa9L15bytcl3BKNTsrIeuwDLOoglolx69nni/S4c02HCVvnSbfCzfwYbV5Z4UUnXItCqylKRW7ksy+V2B2nV0VXUg5sriiJ4KJ0y5QV4t7NNeXe9tsWgq7ytFhaJF7FxP6e+97wuGTL4z9/VxhCLLbe7RZY3o6uISkWpnh4u3xDKv+9E251+30LaamExeFHcCJXVBppMUkNu839eBY3fG/pdhpTH2urC3rNc88dRnQ8/utiUfeTwkfyR7t8nCFYrH/vbb2mqkwWrdf635Q3URUNRPiL4vfg1zkVEw/VqoIE5oKEoDTQwB8iulzHXUJkGGiiDtUIhTPvPrObQFcMikdNAA3cvNvSXQnhDoVAo1OnbQAMN0HC4GmhgTvh/6VcsHDZyee4AAAAASUVORK5CYII=;" vertex="1" parent="1">
          <mxGeometry x="680" y="185" width="67.33" height="15" as="geometry" />
        </mxCell>
        <mxCell id="lsZqnblPNUROAZuHbKDy-12" value="" style="shape=image;verticalLabelPosition=bottom;labelBackgroundColor=default;verticalAlign=top;aspect=fixed;imageAspect=0;image=data:image/png,iVBORw0KGgoAAAANSUhEUgAAAMoAAAAtCAYAAADvJPSSAAAABHNCSVQICAgIfAhkiAAAABl0RVh0U29mdHdhcmUAZ25vbWUtc2NyZWVuc2hvdO8Dvz4AAAA1aVRYdENyZWF0aW9uIFRpbWUAAAAAANCy0YIsIDE3LdCy0LXRgC0yMDI0IDE1OjMxOjA3ICswMzAwXPgU3wAAFTpJREFUeJztnX9sW9d1xz/kI5/4SxQpyZRkSvQPxZYcyz8aO4kcN40Tz50bbymyxl7RAk26re3W9McGNB2w/TMMyIoCxYYCw9DCHZAMS9dmHYJ0tZMldes0ta3EseMfUmzZln9IomVTpvhD/E0+cn88vkc+PpKWFNtyU34BAuZ999537jn3nHvOuUe04cv/8IvC6s4CDTTQgBZt3Rt5Zlc3AKYvPjLL4LrZRSapgQbuMmSNvHCs9NUEQN4EUn6RKGqggbsPybTWyzIuEh0NNPA7hYaiNNDAHNBQlAYamAMaitJAA3NAQ1EaaGAOMC02AbcDUjKp+S5YrYtESQMfFdRXFMEIglD6Lkn108jz7X+rIRiJjfsZe/nnZGdnADA3t9K75wkcPu+doaWSB/Vwp/nTwIJRV1FCI6OERy8g2OwAWNwtOFcux7LEXVXAsXE/0++dAECw2fFs2lCz722BIDD93glmx05jcrgAyIT8TL/nw7HCd9vpkJJJolcmmZ2YunnfRBy7dymezRtuK00N3BpUVxTBSOCd9zn3wl6MZu0j0e3lY8/9NYLDrtl4UjLJ+f98ieS1yxgEG1IqQWj4DBv+5iu3k3496Ta7hmaDYLtDLzYSHDlXlWe1YGxyYevy3LnT7m6CYAQpr7rJgtWqtt2NqKEoAv4DbyJYbBhMouZRJuTnwiuv0/e5J8v6G8kmM4AsfADBIj+SksnfjxhBEJg+eboqz2qhkMuQnY3dZsLuQhQN8YWX9pLPyk0mh4uBrz971xqNulmvagI3NrmYOX6EmH9KtgANLAiFXGaxSVg8SHni/quArCAmh4t8OkxiKrDIhNXGgrNeV14/wNq/+uLCtV9RsmqB71yC3GqJg4XSUUmDMtctsGwmmx2hqbovZuvpxbmsu0SHhoYq767Vp157NR7Nl7fl4+eSzCl/T/lcFTKq6hZr6K14V609U4+uarxZQNJpQYpiMIlEz5widOoD3Gv75j+BaCZ17QbRi5cJnbtILhknF41jctpp9vlovXcVDm9X9bFFP1ZJHCRuBAFwreqjbWC1TN9c4hLBiBSLE70ySXj0AokbQXLROJYOD47ubtoGVn/oREQhl6Ftw1ZW/MmuuoJMTYeIXrxMKhQB5KRJ29rVGpc1NRPR9Gnu6VJ5Hxv3ExmbREon5fb+VWpiIXB8mNT1ACanXeVRzXXV4InJacfW3oar7x6cy7p18SnILnZw5BypUERN+pitIteODhM+PwqUZBS9eFmVmwKDYCN07qL63blyOZbWFk0fZZ3h86M6utz9q6rGOKGRUWYnphCarLT0duPwdhEaGeXqoXfIReM4V/roevihm8r6Q92jXD30TonAuUIwEjr1AWMv/4xMyK/d1H6IDA8xuR+6tu3C98lt+qRBLM74GweZOrgPKClFZHiIif0urB09N48RRDOxS+OMvfxz4uOnNTQk/GMEjyaY2O9i5VO78Tz4sQ9/sghCHUUROLN3L/GJy2oSIJ8F745drNj9BGSyIJoZffEnzI6d1vTZ/I/PA3DiO8+r7QbBhu+J3dw4dly7tiJvpw566f/zZ+QsYCar4Unq2g3GXvlfQu8PYTSjGRsF/G/uo7l3nZxurxg//sZB/G/uw2iWaWvuXYfJaScyPKTOEz1zisARD/GJy7pYzmASmTl+hODRA+r4gb/8gir/S6++xrW3f01BSlSla8lD27nnyZ2l/SIYCY2MMvKv31d5Y2xy0bFlK1MH96lzzI6dBpB5fTsUxWASCb0/ROC9dXge2jynMVIyydkf/w+h94cwOVxq4F85L8DUwX1cP3KIjd9+rqTtopnhf/kh8fHTurHKuOT1ifpEiGYCh9/jwkt7MQi2ujSce2Ev0ycHWfvlL3x4ZREr3K+y497W00vy2mWVFmMTXD9yiCWbN+JY4SN06gNNylvpY+lsJ3ZpvPi99OzKKy9WXZvBJJKNhjj1vedZ85VvyidSka/lPCl/TzlMDpGEf4wT33meFXuexvvog+oaMvGUuvmNTbIcCv6MjoZ0KFxzfoNJVMdnZ2fUBNHwD/5DlXk1I2hyyEr2ztEDrP/W38sJASAbS2A0a3lz7e1fa74LFnSnWzV8qGhcsNiYensIKRKdQ2cj144OExke0jGqkMuQT4e1hDXJAd6V13+ljo9dGpetapN+/FwhRaJc/Nl/YxBKFq2Qy6hzlM9lcriIDA8RG/cvKHFhMIlEL44zvu+A7hMaGS0SJLFs52OIbq9uTf63hiCT5eqhdxAspVMvnw6z8qndNd9ba0MpNBkEG+OvlfiaunaDCy/t1Y1T5FLOE4NJxORwMXXwl6SmQ3X5UouGm8mr/Ln/t0d1hrGarJR1+d8aqmvU5pqRrMScpV/IZVi6/ZOaDW0wicTHTxMcOYfZWoeAou87sf9V3SY32ex0PvwoXTt20+R2aRZvbHIROnVM3lRSHv9bQ5oNA/KmsXl7sXb06JStGvy/PUo+HdYoic3bS/9ffIm+Z57GuWa9VgCCjSuvH1jwiZK8PsHk/pd1nzM//D6pmWJMssSNZ8tWHW+DRw8w/uZviJ45paG3ZWBQvqisk8BQ1mDt6NF8V+ZOXp+QDQAw9fZh3fh8OkzrfVvofnwPNm+vbnNnQn7ZiN2kCqGQy5CLhcnFwuTTYTq2bMWyxFOzv8lmx2AS6dr2BwBM7n9Zs2fy6TDeP/wjBr7+LL4ntMZC4Zmcka1Pl0KTlEpga2+r2xfm4XpJqQSeTRsIDZ8h4R9TBWdscjG+fz/OlctrDxYEdYNWKsrA174qu1ZAanAjZ/buJR0qbZh8Okz44lWsHg+hU8d0Fq9rx25WPP4IAONv/oarB96ovYZkksCRQ5qYxOx00/f0Z7F0tgPgXNbN8A/imjVmblwjNRNZcHBfzb3LxcqUWsrj2/EJ/P/3C924qwfe0K5ZSrB064N1LXkhl8G5Zj29T/4xltYWQmfPM/rCi5o++XSYmQ/OY7LauH7kkM5iL3vyabyfuB8EI74dn+DSq68xdXBfmXvoYvbCWaRItOY9WT4dpu3+7Szb+RjRi5cxO2y41/YhxbZx4ZXXmTl+RF1bPh1W3yklkwgtTsb3HdCtq2vbLny7tgPgWOFDSid1yhQZm5RjqBq8MTvdDHz9WQASUwHa1q7WxmtVMK8YxdLaQtfDg5x74TQmR0l4mZCfqbcPYxSbgepWPTkd1GzQfDpM17Zd8gYtEmlZ4qbtvgc0CzcINjLhGXLJhE7RLEs8dA1uVLMdvp3bmB0f11hgDQ0zYVIBv871Cxw7qfmez8yq4w0mkXQoTC6ZANxzZ1YZ5uQaimZ8T+zmyisvVlUsZZ6WgUE5gaKkOWug/3OfUQNbd/8q3Os3aTamQbCRnA5W5avN20vn/QOlLJJgpOvhh9QEioJcIk42mamqKIVcBrtvnRpgK8YQKY9gtSLaLboxZpsIohkBIJNldnxcl8HMxFMaBarcVwbBRiZ0oyZfzE43vXueKpY0SXO+4JyXokjJJJ6HNjO+fz/ZaEhzqgRPnqg9MJMldV1/meTqu0fnPjT3aNPCBpNI6npAdxlVyGUQ2zs1ioYg0OzzyZmWKoqSmAroyktyiTiT+1/WtFVu1Lm4dLXQ5HYhtnfq2pt9Pjn9qQgpk6Xz/gHC5wdrKrrBJLJs5/ablnoYTCJCi7PEF9GMo7ub4NGEZt5cMk5kbFIztpDLYHLateOlPGariLVzuea0L+QyJAMBXRoX5JOv6+FB7TxzQXE/SMkkuWi8amasICVKbYK+EqJWcF7IZbB6+3Gvv3d+NLGQrJck0bvnKc7+aK+mOZeI1xySmolorLQCc7ND1zcbS+jbZmdIhSI662Ky2udDOdlEdctey4IrWGi9WCGXwdW/lhWf/tScSv+FFie29jZqpUaa3C75fmm+7p8kyda6ArlonEzoxpz5KqX1mysbS9RPdCzkIrhYEpXP6H8dSMmM1UJBSsx7X8wFC0oPu/tX4Vyzvqblq4TZKmIUmynkApr+1eqczA6t0Aq5DObmHoQmq5xDr7CI80G1zQIV8UIVLHloO9ZW18JTxIo7cRNIkSjhsyM1eZqaDhB47+T873YEoaqRsHR41MrwctTiq9BkJldmxwwmEVuX59bXZtWZL58Oq/Vh1WByuPA+Mnhr6WFBJ4rssy7d+mBNF6cSgsOOyWkHv7Y9EQjjXq+9jEsE9JvW0uHB5tHfCeSicW0wKUk6n7UcZoeNfFa+g1DQ5Hax8dvP1aTdbBXvTFGnaGb81ddITQdq8tRgEvEfeFN3a18V5a5FJktsclLHF9FuobmnS2+AonHt+KKFr0abyXp7qrOrGdd8Osw9n/9S3cSRKq+FljTVwMLuUYoBYsvA4NwCVUHQHYfGJheBI2+pN8+IZqRYnBvHjmszMFIC65I2zM0OnSVJXp8gOHJOHR94531dZqwcVo9HF6Mogbqlsx3LErf86WxXP9lk5tYUfxZp1H1ATp9HovKNcUVWr5K/yWuXuXZ0WH+BWYZCLsPoj19R3xvzT+kzhlIC0d2u46uSOg6dPV+iURCYevuwJjZQUC0+WSiyiYyc1hXNCC1OLB3aNLJS5qLKp0JW6hXFbSjWXXgJi2Bk2c7tDJ8/e/O+koTnvgGmDx/QZMtS0wHe/+73aLvvAQCCx9/VWS1jk4vWe1dhbXXR3LtOk7YFGPvJS0yflMsQIsNDdeMNs1XE7tPPcfbfX8CzZSut964CZJcwPHqB4MkTpAJ+fJ/eg2/ntnm7GAaTSPDkCcJnR/QsSWexenvk7JTVyoVXXtdY/EIuQ+t9W8gl4xoX19gkX/apNVs13jtz/AjvT4whtncyW0VGxiYXLb3dKl8rKxrO/mgvnQ8/iuhuJ3x+lOiZU7r7jK5tu2RFmmdgjGhGdLdrTjLFcN44dpx8ZhZbT68uAaHck4wk4yzd+iDmZgfZ2RiJQFgt2bF2Lmf9N56Vkwi3EAtXFCmPw+fVpR1rwd2/SrfRldSrknWqvBlW8vAObxcIRtwDa+T6pYpMSPTMKXV8PQgOO+2b7uNKxRxK5mtyf6mvkk0RLHIatW69Vh3kEnGNX6+gkMuQCfmJXpEFXslDg0lUfe1KY5SNhph6+7Bcn1QDCm+ruUvKPYtS6lFK+bs048trqyrnEN1elmzeuDAXp0ZyIR0KU8iVspveRwZ1MjU2uYieOUVkeAiQ68qUujRjk4vUdEBOWd+6g05+b72Hc3Grlu187OZvKcY1vXuewGASdfMam/R1X/l0GGvncu55cqeaDvV+/H5Et1c3vjwTUpdmKY/30QdpGRisWjJT/lHnkxJVc/4fFkrJRTaWYOzln2ue5dNh3Os34Vjhw+Htwr1+k+7W3v/mPlLXat8XlPctRyGXKaWZAaQ8noc2Y+9ZXrVcpVZZS+kuomQ8qrlmVSHlaVu7uqYsQT5xTVYbfc88XZMuY5NLrRlcaGnKXKFXlKJ/ZxSbMZhE8ukwpuKf16p/rqn0k/JYlrjp/ezn1X75dFgtEXGu9JWOwOIJtPHbz6llIsqYQi6DqZh9yafDmFzdtAwMykdoWTWo4LAz8LWv4lyznlysNFaBUnZRXgojpRLazI4g0P+5z9C1Y3fpfUW6lfnK28SOgdJ9Ty3fVzCCJLFkwzoNzxRelM9f3laQEmQTGbmAUEqoz41NLtkASRKIZo1lVcYCBIfPqcG0ydWtrll5rsxX/m9z+0r6nnlaPU0UrP/Gs3Q/vgez012Xfpu3Vy6oVO4iyngiur36OyellEQwlvoWYxDf449jWeJRZamMNZhErN4eLK0tuNf2seYr38Tm7dXQouyZyrbOx3apcZOSvFGeG0xiKVYuiw81e7oGDEd+/V+FwbXJkmWINEGri8j5y2THM0QKl2lLLcXQ56Bl1XIyAStidxImctAhe26ZgJVE+hS5cwVSZnmxlqwL+xYn1tl2uZ8IydNxrOvsMJEjODlBOHSettRSrgaP47T1YPYsJWuIYC600LGjD0JFKt1lY0NALEckOklhNKaOtbR6Ma024BJXEIlOMjsVwJJ1ESlcZqnvQayri2fx9Rz0mGBCniMdB2Mww2ziBObUEiSLmZw1QVtqKWxooinpweptkS/lr4WhJa3nYpFnADcOnFN5lmiXN4kYF4gULtNiWE7GLrsqthuSzFNnN8HJCZLxaRxRG0HLVVzuVbT1r9CsO3jkErlYhlj2Cm2ppcScCbo3PQCxHO/96Hnu2fAZDS/sW5ykf3WDSEGWh93mkXnRs1XmYwZVlsnhiMwfERKHY0yFD9OWWqqObTG4CFqu4jAvo2Nzn1YeEzlwmMAO4V8Mq/1MDpG2LSu0cquUZQaS5yJcHX9H8z67zaPdO0ByNE7adhVOpok5E0iRDC0GF1eDx1nadh+ZbgcenwuyDlW+OExErl6mMBojaLlKi2E57QMrocdUla5y+SbTBX46vFP9bx+0iiIY4UoA3hUgOgGpIKzZDmcOgGcjRCeI+C/Q8vGn5La2VRCfgewUrP4UjL0LzcVb6PCI3HbmAFjawN5aaht7F4wiOHsg+C4RzyZagpertwG4eiH4LrQ9AOExyMwS6VpHy9Rpla5qtGraKmlV2sppVeiqRqu9FVZlYNM92lhFMMKNWfhlSDv/udfAtVbPi8p3Kvwprrtum9hc4oXSBsTtfcz89J9o/dO/I3nodZKTx+l57t9kGtoe0PKivG0RaNXQUJSljq5qtJa33S5ae6ZhsB+k/E0URRH8B+Ngt0B3Oxw9B/evhtFJuW1lFxwakdsmiz5ysU0a6EEIxiGegnUrSm2pPARC+rYr1+GBPnh3FJZ1kCrksIxdh61r1TbJYkQYnpDbTl8Cjxvcdpmuwf47T2u1DI9iYACWeWDobOmd8RTc64Ohs/XfWcYLqa9L15bytcl3BKNTsrIeuwDLOoglolx69nni/S4c02HCVvnSbfCzfwYbV5Z4UUnXItCqylKRW7ksy+V2B2nV0VXUg5sriiJ4KJ0y5QV4t7NNeXe9tsWgq7ytFhaJF7FxP6e+97wuGTL4z9/VxhCLLbe7RZY3o6uISkWpnh4u3xDKv+9E251+30LaamExeFHcCJXVBppMUkNu839eBY3fG/pdhpTH2urC3rNc88dRnQ8/utiUfeTwkfyR7t8nCFYrH/vbb2mqkwWrdf635Q3URUNRPiL4vfg1zkVEw/VqoIE5oKEoDTQwB8iulzHXUJkGGiiDtUIhTPvPrObQFcMikdNAA3cvNvSXQnhDoVAo1OnbQAMN0HC4GmhgTvh/6VcsHDZyee4AAAAASUVORK5CYII=;" vertex="1" parent="1">
          <mxGeometry x="680" y="315" width="67.33" height="15" as="geometry" />
        </mxCell>
        <mxCell id="lsZqnblPNUROAZuHbKDy-19" value="9100" style="rounded=0;whiteSpace=wrap;html=1;" vertex="1" parent="1">
          <mxGeometry x="650" y="100" width="50" height="20" as="geometry" />
        </mxCell>
        <mxCell id="lsZqnblPNUROAZuHbKDy-20" value="9100" style="rounded=0;whiteSpace=wrap;html=1;" vertex="1" parent="1">
          <mxGeometry x="650" y="360" width="50" height="20" as="geometry" />
        </mxCell>
        <mxCell id="lsZqnblPNUROAZuHbKDy-21" value="9100" style="rounded=0;whiteSpace=wrap;html=1;" vertex="1" parent="1">
          <mxGeometry x="650" y="230" width="50" height="20" as="geometry" />
        </mxCell>
        <mxCell id="lsZqnblPNUROAZuHbKDy-26" value="&lt;span style=&quot;font-size: 26px;&quot;&gt;PULL&lt;/span&gt;" style="text;html=1;align=center;verticalAlign=middle;resizable=0;points=[];autosize=1;strokeColor=none;fillColor=none;" vertex="1" parent="1">
          <mxGeometry x="440" y="202" width="90" height="40" as="geometry" />
        </mxCell>
        <mxCell id="lsZqnblPNUROAZuHbKDy-28" value="9090" style="rounded=0;whiteSpace=wrap;html=1;" vertex="1" parent="1">
          <mxGeometry x="314.11" y="230" width="50" height="20" as="geometry" />
        </mxCell>
        <mxCell id="lsZqnblPNUROAZuHbKDy-32" style="edgeStyle=orthogonalEdgeStyle;rounded=0;orthogonalLoop=1;jettySize=auto;html=1;exitX=0.55;exitY=0.95;exitDx=0;exitDy=0;exitPerimeter=0;entryX=0;entryY=0.5;entryDx=0;entryDy=0;" edge="1" parent="1" source="lsZqnblPNUROAZuHbKDy-30" target="lsZqnblPNUROAZuHbKDy-28">
          <mxGeometry relative="1" as="geometry">
            <Array as="points">
              <mxPoint x="186" y="160" />
              <mxPoint x="290" y="160" />
              <mxPoint x="290" y="240" />
            </Array>
          </mxGeometry>
        </mxCell>
        <mxCell id="lsZqnblPNUROAZuHbKDy-35" style="edgeStyle=orthogonalEdgeStyle;rounded=0;orthogonalLoop=1;jettySize=auto;html=1;exitX=0.55;exitY=0.95;exitDx=0;exitDy=0;exitPerimeter=0;entryX=0;entryY=0.5;entryDx=0;entryDy=0;" edge="1" parent="1" source="lsZqnblPNUROAZuHbKDy-30" target="lsZqnblPNUROAZuHbKDy-33">
          <mxGeometry relative="1" as="geometry">
            <Array as="points">
              <mxPoint x="186" y="160" />
              <mxPoint x="150" y="160" />
            </Array>
          </mxGeometry>
        </mxCell>
        <mxCell id="lsZqnblPNUROAZuHbKDy-30" value="internet" style="ellipse;shape=cloud;whiteSpace=wrap;html=1;" vertex="1" parent="1">
          <mxGeometry x="120" y="22.5" width="120" height="80" as="geometry" />
        </mxCell>
        <mxCell id="lsZqnblPNUROAZuHbKDy-33" value="3000" style="rounded=0;whiteSpace=wrap;html=1;rotation=90;" vertex="1" parent="1">
          <mxGeometry x="125.00000000000003" y="188.5" width="50" height="20" as="geometry" />
        </mxCell>
        <mxCell id="lsZqnblPNUROAZuHbKDy-37" value="&lt;font style=&quot;font-size: 17px;&quot;&gt; Grafana не зберігає самі метрики, &lt;br&gt;а використовує Prometheus &lt;br&gt;як джерело даних.&lt;/font&gt;" style="text;html=1;align=center;verticalAlign=middle;resizable=0;points=[];autosize=1;strokeColor=none;fillColor=none;" vertex="1" parent="1">
          <mxGeometry x="24.11" y="290" width="290" height="70" as="geometry" />
        </mxCell>
      </root>
    </mxGraphModel>
  </diagram>
</mxfile>
